#!OML:ASF F:\VICON\USERDATA\INSTALL\rory3\rory3.ASF
:FULLY-SPECIFIED
:DEGREES
61
root -0.33346614918377737 18.287028288339254 36.132458841715554 -0.4935167942350718 0.9872735966637185 -4.663728437454706
lfemur -11.392846664208395 1.0033949477411652 -15.732939906400718
ltibia 81.11868926788435
lfoot 14.190117091271171 -13.710737620843705
ltoes -6.05119697843632
rfemur -18.504330377338235 4.330715518705507 31.96821974867583
rtibia 38.68299011495408
rfoot -4.965053481150128 -4.590293241840506
rtoes 11.22711013981893
lowerback 12.088242308443167 -0.3533096495492183 2.545070436442728
upperback -0.09426198390484175 0.008048124039997884 3.2353974249032773
thorax -7.107622290551707 0.0022259089809357757 1.6826052909637328
lowerneck -17.338209332234058 -2.637932860774346 -2.518575896314516
upperneck 17.813172868728238 -3.4890289875397977 2.296822542729655
head 8.498877234398034 -1.5648634481662018 0.745917823275393
lclavicle -2.2820177620228507e-15 6.700673338052757e-16
lhumerus -34.490432116605255 -10.023665574826515 92.16413955632432
lradius 71.20438029234052
lwrist 18.787570291337754
lhand -25.550480618349255 11.641200269292556
lfingers 7.125019999999999
lthumb 0.9798795741454545 41.61979248864334
rclavicle -2.2820177620228507e-15 6.700673338052757e-16
rhumerus -46.01487455934155 -9.47881513038132 -86.03805718049986
rradius 63.0523792180863
rwrist 0.5949603705602065
rhand -15.940004062448459 31.60394864845987
rfingers 7.125019999999999
rthumb 10.258166986945588 1.9601508486857149
62
root -0.648170510354744 18.506123939413882 36.67159948010109 2.2096645248796074 1.367669190875621 -4.798269042807041
lfemur -22.243158212376223 4.895842444022647 -16.242043309752574
ltibia 99.77000381259288
lfoot 11.723675527497516 -12.785279958802715
ltoes -11.478097433198192
rfemur -17.84231987319618 3.0924007201614607 34.24232007128208
rtibia 48.16699797367854
rfoot -1.8908420184432329 -4.617545010160984
rtoes 13.416406967118172
lowerback 14.745422150524732 0.28550749578329415 3.2644087506567283
upperback -0.6845091003141687 1.038129697318313 3.2368503329432454
thorax -9.422837484127411 0.4649181962520666 0.7915421498093387
lowerneck -18.533975077104124 -2.8175360320944574 -2.3963336758425706
upperneck 14.179206666482683 -3.931919819443707 3.316619798375211
head 7.590020120511232 -1.6141851383711519 0.9834685814998978
lclavicle -1.7345660323138724e-15 1.7800377406188378e-15
lhumerus -46.169559540402425 -16.800204633440636 99.76073278049998
lradius 112.46362603245228
lwrist 33.33623512252747
lhand -24.78307103957214 0.7167460172920352
lfingers 7.12502
lthumb 1.7210483822759226 30.696161099109187
rclavicle -1.7345660323138724e-15 1.7800377406188378e-15
rhumerus -56.59415287562956 6.300687377444612 -96.53811549695334
rradius 106.22946031116436
rwrist -9.09176231767509
rhand -15.433313201981262 39.6450222836488
rfingers 7.12502
rthumb 10.74703776245189 10.001961933408863
63
root -0.6389530859710241 18.416885269935726 36.586515622042235 2.412021555709667 0.16000119521474376 -5.081740156367813
lfemur -28.20856430574684 6.3286622486286985 -15.942771308669702
ltibia 95.8361991583029
lfoot 5.872922527355133 -9.821932780905593
ltoes -12.233659729558262
rfemur -13.053921228989122 3.334034674549246 35.15358774245948
rtibia 48.14565682548652
rfoot -4.45988245079301 -4.871037299811169
rtoes 13.952552513405529
lowerback 14.97061560506447 0.8401434589718563 4.146883870155282
upperback -0.6816707607107368 1.93376900583139 2.999679362335532
thorax -9.427547700868656 0.8319425124217726 -0.1733063181629605
lowerneck -18.62578623122533 -2.971776628700432 -2.330970489051402
upperneck 13.90143757665509 -4.165306177521904 3.3286151525081733
head 7.544938305451282 -1.712469970476331 0.9567358953862215
lclavicle -1.2942751393316481e-15 2.0995466382062784e-15
lhumerus -49.82007359887542 -15.420890423831569 99.47997604336976
lradius 110.96054148755816
lwrist 33.71123164337851
lhand -25.144230065076183 0.3859766196383687
lfingers 7.12502
lthumb 1.3722571450070242 30.36354303449202
rclavicle -1.2942751393316481e-15 2.0995466382062784e-15
rhumerus -52.46599752322495 8.988311822440778 -98.02831990730043
rradius 108.80393534937916
rwrist -10.254151996221529
rhand -15.861419927613804 39.27401343278256
rfingers 7.12502
rthumb 10.333976012331552 9.61927446471701
64
root -0.6230065891932837 18.18187412989069 36.06392881036061 2.961748657019327 -0.9911525693868019 -5.53725135621989
lfemur -32.954596152956924 6.121521127706431 -15.092735043851938
ltibia 85.4216331226045
lfoot 3.1920458915451855 -6.993248054686661
ltoes -11.687727566412297
rfemur -8.463026326631955 3.572535847075691 36.04357935289655
rtibia 47.1647906844095
rfoot -7.176929627043933 -5.570807170940158
rtoes 14.113360085936979
lowerback 15.14399717229399 1.356172702237612 5.096423124562849
upperback -0.7256602744165969 2.7868979779413863 2.859770829665159
thorax -9.436938710297415 1.1809883081263477 -1.1586824326244494
lowerneck -19.1096065183012 -3.103932118834292 -2.2553110140613706
upperneck 13.358497285316025 -4.33407745704919 3.2727808314589337
head 7.455866184839186 -1.7869177521439292 0.9125839051813822
lclavicle -1.2714290548993333e-15 2.115611129199481e-15
lhumerus -53.378175995673445 -13.742112672592016 98.99195551378047
lradius 109.08279256590545
lwrist 33.88038489482987
lhand -25.653322013195762 -0.06774258616975071
lfingers 7.12502
lthumb 0.8806038132691557 29.907999801210682
rclavicle -1.2714290548993333e-15 2.115611129199481e-15
rhumerus -48.1315715186173 11.684423872922327 -99.25250696953819
rradius 111.34863380143531
rwrist -11.496345822010767
rhand -16.405901429056097 39.38590711511856
rfingers 7.12502
rthumb 9.808577837635044 9.722946966135307
65
root -0.6033567288827374 17.850939012264135 36.04139786897761 3.865208028579937 -2.11920578161537 -6.09207414852863
lfemur -35.73402681417774 3.8476670371689754 -13.480406234536495
ltibia 70.08441508060272
lfoot 2.039162361670098 -3.9206381352040007
ltoes -10.448213316064445
rfemur -3.4750905564014367 3.8465727340044817 36.91477176057944
rtibia 45.17629397533254
rfoot -10.039317783031544 -6.565032949596906
rtoes 12.862813755021218
lowerback 15.06397337886352 1.8542520659994661 6.029720847022257
upperback -0.8013691975907089 3.6052319103406867 2.8187484879019062
thorax -9.376309421349578 1.5172659463535398 -2.0082908049979653
lowerneck -19.876670920850795 -3.1592114415552572 -2.1475701105707445
upperneck 12.722597980137548 -4.409027966486718 3.2110366076966983
head 7.361362514226838 -1.8086711690572252 0.8673807076956803
lclavicle -1.2277565343074802e-15 2.146794834086658e-15
lhumerus -56.38584529267557 -11.733809424083407 98.28171382430232
lradius 106.62397240631537
lwrist 33.7562234785195
lhand -26.13142596151068 -0.28913722144432996
lfingers 7.12502
lthumb 0.4188818236441654 29.686015062876013
rclavicle -1.2277565343074802e-15 2.146794834086658e-15
rhumerus -43.57465428004457 14.055490613001798 -100.07218737433595
rradius 113.52970833266663
rwrist -12.547375186497277
rhand -16.914752012938834 39.86695186151749
rfingers 7.12502
rthumb 9.31751321841267 10.206980547320791
66
root -0.5807140356878092 17.468117317125756 35.48292026522201 4.90929582016205 -3.352807878751618 -6.67834452316008
lfemur -37.39218933050895 0.045109446181666735 -11.725191941322052
ltibia 52.53314278555887
lfoot 0.9600234195545454 -1.1509465721098113
ltoes -9.751171463938281
rfemur 1.3038852440024833 4.066620625184905 37.43778495344658
rtibia 42.292490450272794
rfoot -13.564302095080725 -7.507039988190207
rtoes 8.629190248857007
lowerback 14.618047590712905 2.27517215808653 6.642082613694992
upperback -0.9385502931760947 4.26381993044707 2.7770522311414245
thorax -9.263457262025247 1.7926887456207767 -2.7096541556658242
lowerneck -20.696967655079536 -3.2020209533729727 -2.016258825825674
upperneck 12.165627144606896 -4.513858527969699 3.1491589597768694
head 7.288123258689639 -1.8322664538525957 0.8132815400248613
lclavicle -1.9099152129263956e-15 1.6519047978966817e-15
lhumerus -59.470177368650496 -9.685563314830862 97.20876372186504
lradius 103.03862326806808
lwrist 33.13131906687635
lhand -26.407448122905304 -0.043205275606769566
lfingers 7.12502
lthumb 0.15233108610567125 29.93140939411843
rclavicle -1.9099152129263956e-15 1.6519047978966817e-15
rhumerus -39.58153260312792 15.430923460101646 -100.5274053120746
rradius 114.90641203668264
rwrist -13.23661730898528
rhand -17.372785361645427 40.33617324762125
rfingers 7.12502
rthumb 8.875445648839138 10.66849408827405
67
root -0.5273086502560256 17.110873047264587 35.55715178302152 5.842365052852727 -4.235732546010886 -6.883272719754936
lfemur -37.05032629520758 -3.1958357877242545 -10.3584366638843
ltibia 39.10217770206722
lfoot 1.0108357830029064 0.5680659254394591
ltoes -9.150922663641838
rfemur 6.764331074850325 4.414372275105336 37.678343814221606
rtibia 41.96472303312309
rfoot -15.915144786539384 -7.240469875511299
rtoes 1.4316850335215443
lowerback 14.100322830609558 2.663582999022916 6.95973623515329
upperback -1.0639226789686986 4.827286155448638 2.7303408618831697
thorax -9.122658993956357 2.034931639977062 -2.9771535403162446
lowerneck -21.197902982904925 -3.2688806273440774 -1.8557462059517107
upperneck 11.88077424388222 -4.6802693311922745 3.1864402981922493
head 7.266437834113038 -1.8803495715378054 0.7824004831812513
lclavicle -1.5611241960873119e-15 1.9050502679329336e-15
lhumerus -61.71195241095559 -7.268495440666546 95.85733411307784
lradius 99.01712767561996
lwrist 31.902176465371188
lhand -26.212728674550785 0.8859533279169334
lfingers 7.12502
lthumb 0.34040673988467884 30.8591564092544
rclavicle -1.5611241960873119e-15 1.9050502679329336e-15
rhumerus -36.2538046079612 15.975333747639347 -100.5082578922261
rradius 115.79902848011423
rwrist -13.372016437352091
rhand -17.65739129787175 40.68755609690449
rfingers 7.12502
rthumb 8.600735831507947 10.976770264735762
68
root -0.4624631292785859 16.82041365231896 35.98721743049456 6.153089239867063 -4.62702576331955 -6.754189775862001
lfemur -36.711693681534015 -4.484939562261004 -10.321264645185463
ltibia 33.117804442690556
lfoot 1.8541600172559527 0.10752161228693158
ltoes -8.499122107769798
rfemur 11.104452248959504 4.324706413159321 37.28302304151853
rtibia 44.25052873575243
rfoot -15.557373008923596 -5.552435441589258
rtoes -7.616919661704177
lowerback 13.656049455019811 2.8969433996743534 6.84059215716226
upperback -1.1773265827787187 5.118208502282909 2.5712240317811763
thorax -9.03296604951597 2.166796495749365 -3.028102856348296
lowerneck -21.268327961902198 -3.4911656224584804 -1.755513191269673
upperneck 11.84385513971922 -5.051176789700021 3.266087861979038
head 7.27000798253749 -2.0338383635312787 0.7651201558385323
lclavicle -1.4227424516745847e-15 2.0055647748604502e-15
lhumerus -63.9162272641432 -4.88638763942517 94.25095627667147
lradius 94.93184847566239
lwrist 30.07095198203637
lhand -25.6613417683206 1.7863636734050208
lfingers 7.12502
lthumb 0.8729281817657174 31.75984967452288
rclavicle -1.4227424516745847e-15 2.0055647748604502e-15
rhumerus -34.690667640798786 15.677546064542085 -100.3270494872426
rradius 116.23065270853465
rwrist -13.2425107159727
rhand -17.848760072934223 40.801070754346256
rfingers 7.12502
rthumb 8.416026675587549 11.046714332989309
